<?xml version="1.0" encoding="utf-8"?>
<!-- Generator: Adobe Adobe Illustrator 24.2.0, SVG Export Plug-In . SVG Version: 6.00 Build 0)  -->
<svg version="1.1" id="Layer_1" xmlns="http://www.w3.org/2000/svg" xmlns:xlink="http://www.w3.org/1999/xlink" x="0px" y="0px"
	 viewBox="0 0 294.15 497.58" style="enable-background:new 0 0 294.15 497.58;" xml:space="preserve">
	<g>
		<g>
			<g>
				<path class="st0" d="M294.12,36.79c-0.01-22.43-14.37-36.73-36.86-36.75c-73.46-0.05-146.92-0.05-220.38,0
					C14.39,0.05,0.03,14.35,0.02,36.78c-0.04,141.35-0.03,282.7,0.03,424.05c0,3.82,0.38,7.75,1.33,11.44
					c4.03,15.53,17.12,25.14,34.56,25.22c29.17,0.15,58.34,0.05,87.97,0.05c44.91,0,89.36,0.09,133.8-0.05
					c22.32-0.07,36.39-14.32,36.4-36.66C294.16,319.49,294.16,178.14,294.12,36.79z M22.82,87.01c0-0.62,0.07-1.24-0.01-1.85
					c-0.55-4.37,1.23-5.95,5.72-5.89c15.89,0.21,31.79,0.08,47.69,0.08c41.67,0,82.42,0,123.16-0.02c2.15,0,4.35,0.03,6.45-0.37
					c5.61-1.08,9.17-5.61,9.09-11.2c-0.07-5.38-3.59-9.74-9.03-10.76c-2.4-0.45-4.91-0.43-7.37-0.43
					c-55.56-0.02-111.12-0.02-166.69-0.02c-1.85,0-3.85,0.38-5.51-0.21c-1.36-0.48-3.24-2.09-3.29-3.28
					c-0.3-6.77-0.35-13.58-0.03-20.36c0.25-5.33,4.22-9.1,9.51-9.7c1.83-0.21,3.7-0.16,5.55-0.16c72.69-0.01,145.39-0.01,218.08,0
					c1.54,0,3.09-0.03,4.63,0.08c6.04,0.45,9.98,4.33,10.44,10.33c0.14,1.84,0.09,3.7,0.09,5.55c0,108.65,0,217.29,0,325.94
					c0,8.34-0.01,8.35-8.24,8.35c-77.32,0-154.65,0-231.97,0c-1.7,0-3.53,0.35-5.05-0.19c-1.25-0.45-2.49-1.8-3.06-3.05
					c-0.53-1.16-0.19-2.73-0.19-4.12C22.82,272.82,22.82,179.91,22.82,87.01z M271.3,461.91c-0.03,8.97-4.07,12.89-13.1,12.95
					c-5.71,0.04-11.42,0.01-17.13,0.01c-68.36,0-135.8,0-203.24,0c-11.6,0-15-3.34-15.01-14.78c-0.02-19.44,0.09-38.89-0.07-58.33
					c-0.04-4.34,1.29-5.97,5.79-5.96c79.01,0.1,158.02,0.1,237.03,0c4.45-0.01,5.86,1.55,5.82,5.92
					C271.22,421.79,271.36,441.85,271.3,461.91z"/>
				<path class="st0" d="M250.23,76.59c3.52-2.85,4.91-6.67,3.89-11.16c-1.07-4.67-4.99-8.09-9.75-8.67
					c-4.61-0.56-9.32,2.09-11.36,6.38c-2.2,4.65-1.05,9.36,3.62,13.93C241.5,80.09,246.04,79.99,250.23,76.59z"/>
				<path class="st0" d="M174.93,424.06c-18.65-0.14-37.3-0.13-55.95-0.01c-7,0.04-11.7,4.63-11.84,10.98
					c-0.14,6.65,4.38,11.23,11.71,11.56c4.62,0.21,9.25,0.08,14.33,0.11c14.33-0.03,28.21,0.1,42.08-0.16
					c6.93-0.13,11.6-5.11,11.49-11.37C186.64,428.9,181.82,424.11,174.93,424.06z"/>
			</g>
		</g>
	</g>
</svg>
