<?xml version="1.0" encoding="utf-8"?>
<!-- Generator: Adobe Adobe Illustrator 24.2.0, SVG Export Plug-In . SVG Version: 6.00 Build 0)  -->
<svg version="1.1" id="Layer_1" xmlns="http://www.w3.org/2000/svg" xmlns:xlink="http://www.w3.org/1999/xlink" x="0px" y="0px"
	 viewBox="0 0 981.17 387.81" style="enable-background:new 0 0 981.17 387.81;" xml:space="preserve">
	<g>
		<g>
			<g>
				<path class="st0" d="M369.85,65.97c-0.55-16.45-1.72-33.33-15.52-46.07c-5.63-6.46-12.53-10.5-20.43-10.92
					c-13.05-0.7-26.34-1.45-39.22,0.22c-13.39,1.74-24.31,9.47-29.52,22.56c-3.28,8.23-6.45,17.07-6.88,25.78
					c-1.8,35.79-2.6,71.62-3.58,107.45c-0.17,6.22,2.8,9.06,9.22,9.26c5.36,0.17,10.76-0.79,16.1-0.52c5.9,0.31,7.92-2.49,7.9-7.77
					c-0.01-1.59,0-3.19,0-4.78c0-13.47,0-26.95,0-40.37c2.49-0.23,3.48-0.4,4.46-0.4c12.35,0.1,24.71,0.46,37.06,0.26
					c5.75-0.1,6.84,2.29,6.57,7.47c-0.61,11.73-0.8,23.48-0.84,35.23c-0.03,7.93,2.42,10.34,10.26,10.79
					c4.37,0.25,8.76,0.26,13.14,0.15c9.97-0.27,11.62-1.95,11.54-12.18c-0.08-10.15-0.6-20.29-0.57-30.44
					C369.6,109.78,370.59,87.85,369.85,65.97z M331.37,88.66c-14.65-0.05-28.19-0.05-42.58-0.05c0.03-13.48-0.82-26.25,3.59-38.37
					c3.28-9.01,10.19-12.12,21.4-11.34c11.25,0.78,18,4.75,19.81,13.95c2.27,11.59,3.03,23.47,4.51,35.81
					C334.82,88.66,333.1,88.66,331.37,88.66z"/>
				<path class="st0" d="M603.11,223.31c-19.43-3.52-38.9-1.79-58.36-2.15c-11.22-0.21-13.45,2.28-13.57,13.73
					c-0.17,15.93-0.56,31.86-0.64,47.8c-0.15,30.46-0.16,60.93-0.16,91.39c0,1.75,0.47,3.55,0.99,5.24c1.27,4.14,4.14,6.01,8.51,6.01
					c9.76,0.01,19.51,0.35,29.27,0.26c13.9-0.13,27.94,0.83,41.79-4.35c15.82-6.5,25.9-18.36,28.73-34.07
					c5.21-28.95,4.66-58.31,0.45-87.44C637.4,240.95,621.68,226.68,603.11,223.31z M606.95,336.17c-0.98,9.69-7.8,15-17.47,15.33
					c-6.56,0.22-13.13,0.44-19.67,0.91c-5.16,0.37-7.56-1.11-7.47-6.94c0.44-29.44,0.55-58.88,0.67-88.32
					c0.01-3.56,1.38-5.25,4.9-5.04c8.93,0.54,17.96,0.46,26.75,1.9c7.54,1.23,11.16,7.62,12.17,14.61c1.32,9.2,1.6,18.54,2.33,27.83
					C608.5,310.48,608.24,323.37,606.95,336.17z"/>
				<path class="st0" d="M803.78,221.85c-7.47-1.57-15.38-1.49-23.08-1.43c-28.37,0.23-44.81,14.43-49.29,42.61
					c-4.35,27.33-4.07,54.75,0.09,82.04c3.53,23.19,16.28,37.33,36.53,41.13c6.01,1.13,12.28,0.91,18.43,1.29
					c16.59,1.03,30.98-3.78,42.84-16.38c3.78-6.98,9.27-13.29,10.45-20.33c5.03-29.98,5.35-60.31,0.5-90.29
					C836.96,240.21,824.6,226.23,803.78,221.85z M807.38,337.97c-0.92,7.6-4.23,14.46-12.58,16.48c-9.61,2.33-19.39,4.05-27.08-4.9
					c-1.87-4.43-3.94-8.02-4.46-11.83c-3.12-22.8-3.01-45.67,0.11-68.45c1.55-11.32,8.2-17.26,18.37-17.63
					c14.95-0.54,23.16,4.11,25.07,16.38c1.94,12.49,2.62,25.26,2.76,37.92C809.71,316.62,808.68,327.36,807.38,337.97z"/>
				<path class="st0" d="M183.18,252.02c13.73-1.34,26.6,0.69,29.44,18.38c0.78,4.84,3.72,7.19,8.69,7.21
					c5.58,0.02,11.16,0.42,16.73,0.33c5.61-0.09,9.07-3.75,8.71-9.15c-1.49-22.35-15.38-43.12-38.58-47.08
					c-8.34-1.42-17.01-1.42-25.52-1.24c-19.39,0.42-34.08,8.62-42.12,27.52c-1.02,3.08-2.12,5.68-2.72,8.39
					c-3.89,17.49-2.29,33.63,13.57,44.87c7.07,5,15.06,8.85,22.99,12.45c9.4,4.27,19.33,7.37,28.73,11.63
					c7.16,3.25,9.39,7.73,8.64,14.1c-0.97,8.26-5.37,14.79-12.35,15.87c-17.18,2.67-29.29-1.27-31.34-19.72
					c-0.58-5.22-3.43-8.07-8.47-8.29c-6.35-0.28-12.74-0.35-19.09,0.02c-4.78,0.27-6.96,3.42-6.58,8.19
					c0.16,1.98,0.41,3.96,0.66,5.93c3.26,25.99,17.76,41.95,43.61,45.59c10.05,1.41,20.81,0.59,30.86-1.28
					c22.1-4.1,32.02-20.21,35.5-40.73c3.45-20.34-6.45-40.27-25.56-47.53c-5.77-2.19-11.6-4.22-17.36-6.44
					c-8.16-3.13-16.49-5.94-24.35-9.7c-5.87-2.81-9.65-7.71-8.33-15C170.23,259.24,176.15,252.71,183.18,252.02z"/>
				<path class="st0" d="M46.51,41.27c14.88-5.15,28.26,2.07,31.96,17.29c1.29,5.28,4.13,7.79,9.61,7.68
					c5.17-0.1,10.35,0.32,15.53,0.3c6.44-0.02,9.81-3.93,9-10.48c-0.49-3.94-1.36-7.84-2.18-12.22c-6.77-19-19.21-31.04-39.07-34.07
					C64.94,8.8,58.3,8.99,51.76,9.04C25.34,9.27,10.13,20.31,3.74,45.86C-0.04,61.02,0.66,76.5,14.47,87.28
					c7.42,5.79,15.81,10.59,24.33,14.64c9.84,4.68,20.49,7.65,30.45,12.11c7.44,3.33,9.42,7.82,8.38,14.72
					c-1.24,8.25-5.8,14.36-12.93,15.33c-17.12,2.34-28.6-1.93-30.62-20.05c-0.54-4.89-3.14-7.81-8-8.03
					c-6.54-0.28-13.11-0.31-19.65-0.05c-3.8,0.16-6.6,2.45-6.42,6.49c0.65,14.67,4.84,27.88,14.65,39.43
					c15.2,17.9,53.27,17.01,70.16,9.54c16.2-7.17,22.6-21.31,25.65-37.25c3.89-20.31-6.65-40.98-25.74-47.84
					c-6.55-2.36-13.13-4.66-19.6-7.23c-7.56-3.01-15.23-5.88-22.46-9.57c-5.41-2.76-8.96-7.49-7.7-14.17
					C36.24,48.65,39.92,43.56,46.51,41.27z"/>
				<path class="st0" d="M503.93,228.97c-0.34-5.17-2.89-8.12-8.27-8.16c-5.37-0.04-10.76-0.27-16.12,0
					c-7.96,0.41-10.29,2.83-10.28,10.74c0.02,10.35,0.06,20.71,0.62,31.04c1.24,23.06,2.38,46.11,0.21,69.18
					c-0.28,2.95-0.78,5.94-1.63,8.78c-3.72,12.33-12.42,17.07-27.84,15.36c-9.03-1-16-8.68-16.47-19.79
					c-0.94-22.24-1.33-44.5-1.78-66.76c-0.27-13.33-0.27-26.67-0.3-40.01c-0.01-5.54-1.88-8.68-8.16-7.99
					c-4.73,0.52-9.54,0.43-14.31,0.46c-8.8,0.06-11.22,2.54-11.04,11.55c0.16,7.76,0.33,15.51,0.5,23.81
					c0.07,6.52-0.07,12.5,0.22,18.47c1.15,23.45,1.31,47.02,4,70.3c2.64,22.91,16.31,36.97,36.48,40.29c8.78,1.44,17.95,2,26.8,1.26
					c17.21-1.44,30.9-9.15,39.68-24.87c7.33-13.14,7.75-27.49,7.95-41.72c0.4-29.64-0.02-59.3-0.11-88.95
					C504.05,230.96,504,229.96,503.93,228.97z"/>
				<path class="st0" d="M612.62,167.64c0.46-5.94,0.45-11.93,0.47-17.9c0.03-6.03-1.8-7.8-7.83-7.83
					c-17.12-0.08-34.24-0.14-51.36-0.2c-2.11-0.01-4.23,0-6.41,0c0-12.62,0-24.42,0-36.57c2.44,0,4.43,0.01,6.41,0
					c16.34-0.11,32.67-0.2,49.01-0.35c3.92-0.04,7.81-0.19,8.01-5.68c0.22-6.17,0.52-12.33,0.94-18.49c0.38-5.47-2.22-7.44-7.47-7.44
					c-17.13-0.01-34.25-0.23-51.38-0.4c-1.69-0.02-3.37-0.3-5-0.45c0-9.97,0-19.26,0-29.09c18.36,0,36.43-0.17,54.49,0.08
					c8.03,0.11,9.91-1.19,10.16-9.28c0.16-4.97,0.25-9.95,0.34-14.92c0.12-6.38-1.58-7.95-8.18-8.02
					c-22.89-0.24-45.79-0.59-68.68-0.79c-4.77-0.04-9.57,0.15-14.31,0.66c-4.62,0.49-6.89,3.26-6.88,8.11
					c0.05,17.51-0.05,35.03-0.11,53.13c-0.08,8.36-0.17,16.13-0.21,23.89c-0.14,23.7-0.21,47.4-0.44,71.09
					c-0.04,4.14,1.57,6.47,5.68,6.82c2.57,0.22,5.17,0.21,7.75,0.22c25.69,0.05,51.38-0.03,77.07,0.22
					C609.85,174.5,612.27,172.19,612.62,167.64z"/>
				<path class="st0" d="M877.77,17.74c-0.09-5.15-2.67-8.14-8.17-8.12c-5.17,0.02-10.35-0.4-15.5-0.09
					c-9.28,0.56-11.54,3.04-11.24,12.28c0.59,18.29,1.38,36.58,2.13,55.44c-0.3,14.08-0.43,27.6-1.09,41.09
					c-0.23,4.69-1.19,9.54-2.84,13.93c-3.63,9.61-13.23,13.81-26.45,12.29c-8.17-0.94-14.8-7.63-16.27-16.73
					c-0.7-4.31-1.29-8.68-1.38-13.04c-0.39-20.89-0.62-41.77-0.85-62.66c-0.13-11.34-0.06-22.69-0.23-34.03
					c-0.11-6.85-1.35-8.01-8.03-7.96c-4.77,0.03-9.54,0.38-14.3,0.38c-8.94,0.02-11.25,2.3-11.11,11.41
					c0.37,24.47,0.44,48.95,1.27,73.41c0.46,13.49,1.23,27.12,3.58,40.38c4.76,26.91,20.89,39.87,48.1,40.34
					c4.38,0.07,8.78,0.47,13.14,0.22c24.69-1.39,41.18-15.24,46.56-38.21c2.86-12.23,2.83-25.28,2.96-37.98
					c0.22-22.68-0.46-45.37-0.68-68.05C877.31,27.27,877.86,22.5,877.77,17.74z"/>
				<path class="st0" d="M672.58,160.39c-0.37-13.9-0.62-27.8-0.75-41.7c-0.04-4.32,0.48-8.65,0.77-13.52c2.56,0,4.7,0.01,6.84,0
					c16.33-0.12,32.66-0.3,48.99-0.34c5.27-0.01,8.18-1.67,7.94-7.66c-0.22-5.34,0.63-10.72,0.84-16.08
					c0.25-6.24-1.38-7.81-7.56-7.85c-17.12-0.13-34.24-0.27-51.35-0.45c-1.68-0.02-3.36-0.33-4.99-0.5c0-9.94,0-19.23,0-28.88
					c19.13,0,37.99,0,57.39,0.01c6.2,0.24,6.94-3.9,7.23-7.97c0.4-5.74,0.37-11.52,0.52-17.28c0.14-5.08-2.48-7.06-7.39-7.1
					c-24.08-0.21-48.16-0.79-72.23-0.73c-14.42,0.03-19.84-1.8-17.73,17.74c0.02,0.2,0.02,0.4,0.02,0.6
					c-0.52,46.17-1.01,92.35-1.6,138.52c-0.05,4.15,1.6,6.62,5.69,6.8c4.76,0.21,9.61-0.62,14.29,0
					C669.25,175.28,672.84,170.37,672.58,160.39z"/>
				<path class="st0" d="M359.96,221.73c-7.17,0.09-14.33,0.3-22.1,0.49c-22.29,0-43.99,0.04-65.68-0.1
					c-3.92-0.03-6.36,1.44-6.46,5.27c-0.2,7.16-0.14,14.33,0.16,21.48c0.18,4.38,2.84,5.99,7.29,5.79
					c7.75-0.34,15.53-0.04,23.28-0.29c4.1-0.13,5.79,1.41,5.69,5.53c-0.26,9.75-0.39,19.5-0.43,29.26
					c-0.06,14.13,0.11,28.27-0.01,42.4c-0.14,15.5-0.57,31-0.71,46.51c-0.04,4.98,2.52,7.77,7.8,7.65
					c5.77-0.13,11.56,0.08,17.31-0.29c4.95-0.32,8.05-2.73,8.03-8.35c-0.06-18.51,0.1-37.02,0.14-55.53
					c0.04-20.31,0.14-40.62-0.04-60.94c-0.04-4.58,1.17-6.4,6.07-6.05c6.73,0.48,13.52,0.17,20.29,0.25
					c6.19,0.08,8.43-1.78,8.66-7.93c0.19-5.36-0.08-10.74-0.04-16.12C369.25,223.6,367.36,221.64,359.96,221.73z"/>
				<path class="st0" d="M138.88,43.31c7.55-0.29,15.13-0.27,22.69-0.14c2.02,0.03,4.03,0.94,6.2,1.99
					c0.07,8.1-0.07,15.65-0.07,23.21c-0.01,17.12,0.17,34.24,0.05,51.35c-0.11,15.7-0.58,31.39-0.73,47.09
					c-0.04,4.6,2.19,7.6,7.24,7.6c4.77,0,9.55,0.06,14.31-0.09c10.1-0.31,11.87-2.32,11.15-12.18c-0.13-1.78-0.11-3.58-0.1-5.37
					c0.23-35.83,0.45-71.67,0.71-107.5c0.01-1.9,0.28-3.81,0.44-5.89c9.01,0,17.35-0.04,25.69,0.01c6.49,0.04,9.12-2.32,9.22-8.82
					c0.07-4.97-0.2-9.94-0.14-14.91c0.09-7.01-1.99-9.28-9.15-9.27c-4.57,0.01-9.15,0.46-13.72,0.48
					c-24.68,0.08-49.35,0.16-74.03,0.05c-3.85-0.02-6.45,1.04-6.55,5.03c-0.18,7.16-0.17,14.33,0.14,21.49
					C132.4,41.3,134.5,43.48,138.88,43.31z"/>
				<path class="st0" d="M396.54,43.31c7.75-0.34,15.53-0.01,23.28-0.29c4.02-0.14,5.87,1.06,5.64,5.34
					c-0.32,6.16-0.28,12.33-0.39,19.1c-0.04,18.51-0.02,36.42-0.14,54.34c-0.1,15.1-0.44,30.2-0.48,45.3
					c-0.01,4.67,2.47,7.44,7.45,7.35c5.96-0.1,11.95,0.07,17.89-0.38c5.74-0.43,7.83-3.31,7.61-9.23c-0.13-3.38-0.37-6.76-0.35-10.14
					c0.16-35.04,0.36-70.07,0.57-105.11c0.01-1.94,0.17-3.87,0.28-6.24c8.86,0,17.17-0.08,25.49,0.02c7.08,0.08,9.74-2.42,9.72-9.54
					c-0.02-4.96-0.31-9.94-0.08-14.89c0.26-5.53-2.3-8.32-7.6-8.45c-4.57-0.11-9.14,0.37-13.71,0.38
					c-25.27,0.08-50.55,0.19-75.82,0.04c-4.66-0.03-6.76,1.78-6.8,6.14c-0.06,6.57-0.03,13.14,0.19,19.7
					C389.44,41.25,391.62,43.53,396.54,43.31z"/>
				<path class="st0" d="M981.11,154.33c-0.45-12.61,2.73-12.78-13.14-12.64c-10.26,0.09-20.53,0.02-30.5,0.02
					c0-22.92-0.07-44.97,0.02-67.02c0.07-18.89,0.39-37.79,0.45-56.68c0.02-4.63-2.35-7.6-7.3-7.58c-6.16,0.02-12.35-0.07-18.47,0.47
					c-5.78,0.51-7.51,3.44-7.39,9.4c0.24,11.52,0.32,23.05,0.22,34.58c-0.31,37.01-0.79,74.02-1.04,111.03
					c-0.05,6.95,1.5,8.26,8.54,8.35c7.96,0.1,15.92-0.12,24.47-0.2c12.34-0.01,24.08-0.16,35.82,0.05c5.26,0.09,7.87-2.2,8.13-7.25
					C981.13,162.68,981.26,158.5,981.11,154.33z"/>
				<path class="st0" d="M685.86,221.64c-2.37,0.06-4.16,0.08-5.95,0.17c-8.78,0.45-10.9,2.93-10.05,11.52
					c0.22,2.17,0.22,4.37,0.2,6.56c-0.29,31.45-0.61,62.9-0.9,94.35c-0.13,14.53-0.04,29.07-0.41,43.59
					c-0.14,5.35,1.91,7.83,7.09,8.02c6.15,0.22,12.31,0.52,18.46,0.64c5.04,0.11,7.06-2.66,7.03-7.53
					c-0.06-8.35,0.05-16.71,0.12-25.07c0.33-38.62,0.61-77.23,1.02-115.85C702.65,221.97,702.5,221.71,685.86,221.64z"/>
			</g>
		</g>
	</g>
</svg>
